Coordinates
version=1
nRows=10
nColumns=40
inDegrees=yes

Units are S.I. units (second, meters, Newtons, ...)
Angles are in degrees.

endheader
time	pelvis_tilt	pelvis_list	pelvis_rotation	pelvis_tx	pelvis_ty	pelvis_tz	hip_flexion_r	hip_adduction_r	hip_rotation_r	knee_angle_r	knee_angle_r_beta	ankle_angle_r	subtalar_angle_r	mtp_angle_r	hip_flexion_l	hip_adduction_l	hip_rotation_l	knee_angle_l	knee_angle_l_beta	ankle_angle_l	subtalar_angle_l	mtp_angle_l	lumbar_extension	lumbar_bending	lumbar_rotation	arm_flex_r	arm_add_r	arm_rot_r	elbow_flex_r	pro_sup_r	wrist_flex_r	wrist_dev_r	arm_flex_l	arm_add_l	arm_rot_l	elbow_flex_l	pro_sup_l	wrist_flex_l	wrist_dev_l
     26.12000000	     -4.62233122	     -5.82829003	      3.02752358	      1.06066884	      0.93144190	      0.51559035	     13.13135417	      4.41459762	    -18.62767086	     16.18279374	     16.18279374	     10.50870341	      4.89998737	     -1.81211358	     38.49601034	    -14.97851696	      0.94051960	     64.75428304	     64.75428304	     13.68581058	    -19.03991406	     16.18765086	    -12.49350729	      6.78230913	      6.03113071	     15.38654177	    -14.29137026	     -1.18658490	     35.65890471	     45.61720788	      0.00000000	      0.00000000	      5.85952746	     -9.06549061	      1.10395981	     58.80343772	     46.46223092	      0.00000000	      0.00000000
     26.13150000	     -4.64598367	     -5.80386210	      3.26507462	      1.05918133	      0.93123473	      0.51576949	     12.51419778	      4.55734446	    -18.32782071	     15.84999223	     15.84999223	     10.78536855	      4.29827287	     -1.99367311	     39.84683668	    -14.76160532	      1.33892368	     63.05218904	     63.05218904	     13.53642780	    -19.04560563	     16.39245454	    -12.49901828	      6.73508035	      5.94987192	     17.63739358	    -14.52079274	     -0.73080081	     37.86169428	     45.53033844	      0.00000000	      0.00000000	      4.95286095	     -8.65869754	      0.45541133	     54.18001487	     46.49601344	      0.00000000	      0.00000000
     26.14300000	     -4.62006286	     -5.76410254	      3.51479020	      1.05781293	      0.93100811	      0.51584863	     11.81717203	      4.65453305	    -18.22370373	     15.49679951	     15.49679951	     11.13652032	      4.03887505	     -2.12818536	     40.95470798	    -14.49477541	      1.70591878	     61.12058630	     61.12058630	     13.29420933	    -19.04818298	     16.54765671	    -12.60998063	      6.67448995	      5.43641097	     20.21332952	    -14.39334291	     -0.60057955	     39.93417824	     45.46310728	      0.00000000	      0.00000000	      3.40993820	     -8.74998739	      0.36625301	     51.15257559	     46.46967676	      0.00000000	      0.00000000
     26.15450000	     -4.62021428	     -5.76385315	      3.71899178	      1.05644097	      0.93075402	      0.51592643	     11.13448386	      4.82540289	    -17.96563985	     15.06509944	     15.06509944	     11.28509639	      3.57339538	     -2.61255979	     41.90432139	    -14.23091901	      2.09271105	     58.95899144	     58.95899144	     12.88703697	    -19.01299301	     16.51574933	    -12.63448753	      6.67070465	      6.01404885	     21.74028010	    -15.33240775	      0.71376483	     43.08065895	     45.29908122	      0.00000000	      0.00000000	      3.95715811	     -7.71765227	     -1.05929981	     44.01377138	     46.58492749	      0.00000000	      0.00000000
     26.16600000	     -4.57700260	     -5.74383570	      3.94180126	      1.05513723	      0.93050539	      0.51590851	     10.39194771	      4.93941756	    -17.90983888	     14.64880752	     14.64880752	     11.61826763	      3.48490531	     -2.72235040	     42.63200076	    -13.88695765	      2.51253502	     56.61448704	     56.61448704	     12.51191777	    -18.92813612	     16.78236117	    -12.78634125	      6.63161266	      5.50565202	     24.23641568	    -15.11128445	      0.74366134	     45.17892942	     45.23751678	      0.00000000	      0.00000000	      2.40595936	     -7.88819995	     -1.16763850	     41.64525348	     46.56692808	      0.00000000	      0.00000000
     26.17750000	     -4.57301978	     -5.76282805	      4.14667617	      1.05389314	      0.93017001	      0.51575520	      9.64342430	      5.09942788	    -17.87099482	     14.12373687	     14.12373687	     11.88776147	      3.44166777	     -2.86531926	     43.24654242	    -13.48371554	      3.05982098	     54.13159921	     54.13159921	     12.14352856	    -18.83097200	     16.85598846	    -12.88480868	      6.64509847	      5.17230129	     26.57535940	    -15.00065522	      1.01071920	     47.50375852	     45.15666648	      0.00000000	      0.00000000	      1.25789264	     -7.89726298	     -1.39892967	     38.46563569	     46.56400526	      0.00000000	      0.00000000
     26.18900000	     -4.62506051	     -5.87325126	      4.28560987	      1.05270862	      0.92970550	      0.51556705	      8.95998302	      5.33663646	    -17.87475083	     13.58843959	     13.58843959	     11.96025717	      3.54106063	     -3.51609546	     43.73548779	    -13.19641047	      3.60363420	     51.42459213	     51.42459213	     11.34581616	    -18.57681500	     15.57313031	    -12.87629425	      6.76728304	      6.20293242	     27.40775450	    -16.62624812	      2.64935629	     51.92138546	     44.95390398	      0.00000000	      0.00000000	      2.42984159	     -7.02688300	     -2.95526109	     31.17196414	     46.75303346	      0.00000000	      0.00000000
     26.20050000	     -4.65931468	     -5.93738235	      4.42231144	      1.05162718	      0.92933942	      0.51526255	      8.19490851	      5.52629014	    -17.89924231	     12.97330555	     12.97330555	     12.20672208	      3.81996913	     -3.57279943	     44.05597922	    -12.79089163	      4.23888681	     48.64613968	     48.64613968	     11.04341051	    -18.14703247	     15.63203052	    -12.95942457	      6.81024367	      5.80557547	     29.69356673	    -16.31003238	      2.54504305	     54.21258479	     44.89515068	      0.00000000	      0.00000000	      0.85351891	     -7.24485672	     -3.18495427	     29.50549906	     46.75775523	      0.00000000	      0.00000000
     26.21200000	     -4.69217382	     -6.14262719	      4.51825291	      1.05074217	      0.92883394	      0.51492771	      7.39612283	      5.84294658	    -18.19707486	     12.31292786	     12.31292786	     12.38139281	      4.50725930	     -3.94016723	     44.23324175	    -12.60817732	      4.79205967	     45.70676733	     45.70676733	     10.17471664	    -17.53482326	     13.80148271	    -13.00273848	      7.03475856	      6.35463325	     30.79317138	    -17.37275239	      3.43646754	     59.03555661	     44.73684170	      0.00000000	      0.00000000	      0.63263778	     -7.00882005	     -4.30209369	     25.65750294	     46.92057825	      0.00000000	      0.00000000
     26.22350000	     -4.77981241	     -6.23040162	      4.57975125	      1.05000338	      0.92844125	      0.51452695	      6.58898364	      6.05942602	    -18.26307550	     11.55263805	     11.55263805	     12.56408028	      5.01146847	     -3.92072542	     44.25476773	    -12.33357111	      5.25023292	     42.68083611	     42.68083611	     10.07845231	    -16.46188977	     13.88197464	    -12.94911254	      7.06312935	      5.98418515	     32.92995848	    -16.91521870	      3.32556423	     61.31329159	     44.68091239	      0.00000000	      0.00000000	     -0.98235357	     -7.29659454	     -4.44540514	     24.35009845	     46.91559203	      0.00000000	      0.00000000
